<?xml version="1.0" encoding="UTF-8"?>
<svg id="Capa_1" xmlns="http://www.w3.org/2000/svg" version="1.1" xmlns:xlink="http://www.w3.org/1999/xlink" xmlns:xodm="http://www.corel.com/coreldraw/odm/2003" viewBox="0 0 80.29 23.23">
  <!-- Generator: Adobe Illustrator 30.3.0, SVG Export Plug-In . SVG Version: 2.1.3 Build 182)  -->
  <defs>
    <style>
      .st0 {
        fill: url(#Degradado_sin_nombre);
      }

      .st0, .st1, .st2, .st3, .st4, .st5, .st6, .st7 {
        fill-rule: evenodd;
      }

      .st1 {
        fill: #ffd525;
      }

      .st8 {
        fill: #fefefe;
        stroke: #f1f1f2;
        stroke-miterlimit: 10;
        stroke-width: .22px;
      }

      .st2 {
        fill: #e53062;
      }

      .st3 {
        fill: #0077bd;
      }

      .st4 {
        fill: #bb334d;
      }

      .st5 {
        fill: #00afef;
      }

      .st6 {
        fill: #cd355c;
      }
    </style>
    <linearGradient id="Degradado_sin_nombre" data-name="Degradado sin nombre" x1="9686.08" y1="-13909.63" x2="10022.11" y2="-13478.5" gradientTransform="translate(-270.12 -371.41) scale(.03 -.03)" gradientUnits="userSpaceOnUse">
      <stop offset="0" stop-color="#000"/>
      <stop offset="1" stop-color="#4b4b4d"/>
    </linearGradient>
  </defs>
  <g>
    <path class="st8" d="M25.26,20.57c.52,0,.96-.18,1.25-.53l-.38-.36c-.23.25-.51.37-.84.37-.65,0-1.13-.46-1.13-1.11s.47-1.11,1.13-1.11c.33,0,.61.12.84.37l.38-.36c-.29-.34-.73-.53-1.25-.53-.97,0-1.69.68-1.69,1.62s.72,1.62,1.69,1.62Z"/>
    <path class="st8" d="M28.48,20.57c.98,0,1.7-.68,1.7-1.62s-.72-1.62-1.7-1.62-1.7.69-1.7,1.62.72,1.62,1.7,1.62ZM28.48,20.05c-.64,0-1.11-.46-1.11-1.11s.47-1.11,1.11-1.11,1.11.46,1.11,1.11-.47,1.11-1.11,1.11ZM34.26,20.52v-3.16h-.49l-1.24,2.09-1.25-2.09h-.48v3.16h.56v-2.06l1.04,1.7h.26l1.04-1.73v2.09h.56ZM36.47,20.57c.86,0,1.38-.5,1.38-1.42v-1.78h-.58v1.76c0,.65-.29.93-.8.93s-.8-.28-.8-.93v-1.76h-.59v1.78c0,.92.52,1.42,1.38,1.42ZM40.89,17.37v2.14l-1.74-2.14h-.48v3.16h.58v-2.14l1.74,2.14h.48v-3.16h-.58ZM42.32,20.52h.59v-3.16h-.59v3.16ZM45.22,20.57c.52,0,.96-.18,1.25-.53l-.38-.36c-.23.25-.51.37-.84.37-.65,0-1.13-.46-1.13-1.11s.47-1.11,1.13-1.11c.33,0,.61.12.84.37l.38-.36c-.29-.34-.73-.53-1.25-.53-.97,0-1.69.68-1.69,1.62s.72,1.62,1.69,1.62Z"/>
    <path class="st8" d="M49.33,20.52h.61l-1.42-3.16h-.58l-1.42,3.16h.6l.31-.73h1.58l.32.73ZM47.63,19.33l.59-1.38.6,1.38h-1.19Z"/>
    <path class="st8" d="M51.75,20.57c.52,0,.96-.18,1.25-.53l-.38-.36c-.23.25-.51.37-.84.37-.65,0-1.13-.46-1.13-1.11s.47-1.11,1.13-1.11c.33,0,.61.12.84.37l.38-.36c-.29-.34-.73-.53-1.25-.53-.97,0-1.69.68-1.69,1.62s.72,1.62,1.69,1.62ZM53.57,20.52h.59v-3.16h-.59v3.16ZM56.1,17.11h.49l.78-.62h-.66l-.61.62ZM56.48,20.57c.98,0,1.7-.68,1.7-1.62s-.72-1.62-1.7-1.62-1.7.69-1.7,1.62.72,1.62,1.7,1.62ZM56.48,20.05c-.64,0-1.11-.46-1.11-1.11s.47-1.11,1.11-1.11,1.11.46,1.11,1.11-.47,1.11-1.11,1.11ZM61.03,17.37v2.14l-1.74-2.14h-.48v3.16h.58v-2.14l1.74,2.14h.48v-3.16s-.58,0-.58,0ZM66,17.37l-1.06,2.43-1.05-2.43h-.64l1.38,3.16h.58l1.38-3.16h-.59Z"/>
    <path class="st8" d="M66.92,20.52h.59v-3.16h-.59v3.16ZM69.33,20.57c.87,0,1.28-.43,1.28-.94,0-1.16-1.87-.72-1.87-1.39,0-.24.2-.43.69-.43.27,0,.59.08.87.25l.19-.46c-.28-.18-.67-.28-1.05-.28-.87,0-1.27.43-1.27.94,0,1.17,1.87.73,1.87,1.41,0,.23-.21.41-.7.41-.39,0-.79-.14-1.04-.35l-.2.46c.26.23.75.38,1.24.38ZM72.55,20.57c.86,0,1.38-.5,1.38-1.42v-1.78h-.58v1.76c0,.65-.29.93-.8.93s-.8-.28-.8-.93v-1.76h-.59v1.78c0,.92.52,1.42,1.38,1.42Z"/>
    <path class="st8" d="M77.04,20.52h.61l-1.42-3.16h-.58l-1.42,3.16h.6l.31-.73h1.58l.32.73ZM75.34,19.33l.59-1.38.6,1.38h-1.19ZM78.05,20.52h2.24v-.5h-1.65v-2.66h-.59v3.16Z"/>
    <path class="st8" d="M29.43,11.14c.45,0,.8-.08,1.04-.24.24-.18.36-.41.36-.72v-.03c0-.29-.11-.53-.35-.69-.23-.18-.59-.26-1.08-.26h-2.23v1.94s2.26,0,2.26,0ZM29.01,7.15c.45,0,.8-.08,1.02-.23.24-.15.36-.39.36-.69v-.03c0-.3-.11-.51-.33-.68-.23-.15-.56-.23-1-.23h-1.9v1.85h1.84ZM24.33,2.95h5.41c.66,0,1.24.08,1.7.24.47.17.86.39,1.18.71.21.21.38.45.5.74.12.27.18.6.18.96v.03c0,.62-.15,1.1-.45,1.48-.32.38-.71.66-1.18.87.65.21,1.15.51,1.52.9.39.41.57.96.57,1.67v.03c0,.92-.35,1.63-1.05,2.14-.69.51-1.67.77-2.94.77h-5.44s0-10.55,0-10.55ZM41.31,9.34l-1.18-3-1.19,3h2.37ZM38.75,2.87h2.82l4.49,10.62h-3.13l-.77-1.88h-4.07l-.75,1.88h-3.07l4.49-10.62ZM51.93,8.01c.5,0,.89-.11,1.16-.35.27-.23.41-.53.41-.9v-.03c0-.42-.14-.74-.42-.95-.29-.2-.66-.3-1.16-.3h-1.91v2.53s1.93,0,1.93,0ZM47.08,2.95h4.99c.81,0,1.51.09,2.06.3.56.2,1.02.48,1.37.84.63.6.93,1.42.93,2.46v.03c0,.81-.2,1.49-.59,2.02-.39.53-.92.93-1.58,1.22l2.52,3.68h-3.38l-2.12-3.19h-1.28v3.19h-2.92V2.95ZM64.12,9.34l-1.18-3-1.19,3h2.37ZM61.56,2.87h2.82l4.49,10.62h-3.13l-.77-1.88h-4.07l-.75,1.88h-3.07l4.49-10.62ZM69.9,2.95h2.92v4.28l3.63-4.28h3.47l-3.99,4.54,4.13,6.01h-3.51l-2.65-3.92-1.07,1.19v2.73h-2.92s0-10.55,0-10.55Z"/>
  </g>
  <g>
    <polygon class="st7" points="0 .15 12.03 .15 12.03 23.37 0 23.37 0 .15"/>
    <path class="st0" d="M12.03,6.09h-6.01v17.29h6.02c2.33,0,4.6-1.2,5.94-3.06.81-1.13,1.23-2.52,1.23-3.98,0-2.45-1.41-4.54-3.44-5.6,0,0-3.73-4.64-3.73-4.64Z"/>
    <polygon class="st5" points="0 .15 12.48 .15 6.01 6.3 0 .15"/>
    <polygon class="st3" points="0 12.39 0 .15 6.01 6.3 0 12.39"/>
    <path class="st1" d="M12.03,12.04c3.62-.25,6.21-2.73,6.23-6.32-.17-3.4-2.89-5.59-5.78-5.58l-6.47,6.15c1.94,1.92,4.08,3.83,6.01,5.75Z"/>
    <polygon class="st2" points="0 23.37 12.03 23.37 6.02 18.18 0 23.37"/>
    <polygon class="st6" points="0 12.39 0 23.37 6.02 18.18 0 12.39"/>
    <polygon class="st4" points="12.03 12.16 12.03 23.37 6.02 18.18 12.03 12.16"/>
  </g>
</svg>