<?xml version="1.0" encoding="UTF-8"?>
<svg id="Capa_1" xmlns="http://www.w3.org/2000/svg" version="1.1" viewBox="0 0 285.05 283.33">
  <!-- Generator: Adobe Illustrator 30.3.0, SVG Export Plug-In . SVG Version: 2.1.3 Build 182)  -->
  <defs>
    <style>
      .st0 {
        fill: #e3185b;
      }

      .st0, .st1, .st2, .st3, .st4, .st5, .st6, .st7 {
        fill-rule: evenodd;
      }

      .st1 {
        fill: #ffd300;
      }

      .st2 {
        fill: #b81d42;
      }

      .st3 {
        fill: #666;
      }

      .st4 {
        fill: #404041;
      }

      .st5 {
        fill: #0071bb;
      }

      .st6 {
        fill: #edc11b;
      }

      .st7 {
        fill: #00adee;
      }
    </style>
  </defs>
  <polygon class="st4" points="141.53 141.66 0 283.33 141.53 283.19 141.53 141.66"/>
  <polygon class="st0" points="0 .26 141.54 141.66 141.54 .14 0 .26"/>
  <polygon class="st5" points="0 0 141.53 141.66 0 141.52 0 0"/>
  <polygon class="st7" points="141.53 141.66 0 283.05 0 141.53 141.53 141.66"/>
  <polygon class="st2" points="141.53 141.53 283.07 -.14 141.53 0 141.53 141.53"/>
  <polygon class="st6" points="283.07 283.2 141.53 141.53 283.07 141.67 283.07 283.2"/>
  <polygon class="st1" points="141.53 141.53 283.07 .13 283.07 141.66 141.53 141.53"/>
  <polygon class="st3" points="283.07 282.92 141.53 141.53 141.53 283.05 283.07 282.92"/>
</svg>