<?xml version="1.0" encoding="UTF-8"?>
<svg id="Capa_1" xmlns="http://www.w3.org/2000/svg" version="1.1" viewBox="0 0 1428.75 9.75">
  <!-- Generator: Adobe Illustrator 30.3.0, SVG Export Plug-In . SVG Version: 2.1.3 Build 182)  -->
  <defs>
    <style>
      .st0 {
        fill: #e3185b;
      }

      .st0, .st1, .st2, .st3, .st4, .st5, .st6, .st7 {
        fill-rule: evenodd;
      }

      .st1 {
        fill: #ffd300;
      }

      .st2 {
        fill: #b81d42;
      }

      .st3 {
        fill: #666;
      }

      .st4 {
        fill: #404041;
      }

      .st5 {
        fill: #0071bb;
      }

      .st6 {
        fill: #edc11b;
      }

      .st7 {
        fill: #00adee;
      }
    </style>
  </defs>
  <g>
    <polygon class="st4" points="17.01 9.75 0 26.72 17.01 26.72 17.01 9.75"/>
    <polygon class="st0" points="0 -7.19 17.01 9.75 17.01 -7.22 0 -7.19"/>
    <polygon class="st5" points="0 -7.22 17.01 9.75 0 9.75 0 -7.22"/>
    <polygon class="st7" points="17.01 9.75 0 26.69 0 9.75 17.01 9.75"/>
    <polygon class="st2" points="17.01 9.75 34.01 -7.22 17.01 -7.22 17.01 9.75"/>
    <polygon class="st6" points="34.01 26.72 17.01 9.75 34.01 9.75 34.01 26.72"/>
    <polygon class="st1" points="17.01 9.75 34.01 -7.22 34.01 9.75 17.01 9.75"/>
    <polygon class="st3" points="34.01 26.69 17.01 9.75 17.01 26.69 34.01 26.69"/>
    <polygon class="st0" points="68.02 -7.22 34.01 -7.22 34.01 26.72 68.02 -7.22"/>
    <polygon class="st2" points="34.01 26.72 68.02 26.72 68.02 -7.22 34.01 26.72"/>
    <polygon class="st4" points="85.03 9.75 68.02 -7.22 68.02 9.75 85.03 9.75"/>
    <polygon class="st0" points="102.03 -7.22 85.03 9.75 102.03 9.75 102.03 -7.22"/>
    <polygon class="st5" points="102.07 -7.22 85.03 9.75 85.06 -7.22 102.07 -7.22"/>
    <polygon class="st7" points="85.03 9.75 68.06 -7.22 85.06 -7.22 85.03 9.75"/>
    <polygon class="st2" points="85.06 9.75 102.07 26.72 102.07 9.75 85.06 9.75"/>
    <polygon class="st6" points="68.02 26.72 85.06 9.75 85.03 26.72 68.02 26.72"/>
    <polygon class="st1" points="85.06 9.75 102.03 26.72 85.03 26.72 85.06 9.75"/>
    <polygon class="st3" points="68.06 26.72 85.06 9.75 68.06 9.75 68.06 26.72"/>
    <polygon class="st5" points="136.08 -7.22 102.07 -7.22 102.07 26.72 136.08 -7.22"/>
    <polygon class="st7" points="102.07 26.72 136.08 26.72 136.08 -7.22 102.07 26.72"/>
    <polygon class="st4" points="153.09 9.75 136.05 26.72 136.08 9.75 153.09 9.75"/>
    <polygon class="st0" points="170.06 26.72 153.09 9.75 170.09 9.75 170.06 26.72"/>
    <polygon class="st5" points="170.09 26.72 153.09 9.75 153.09 26.72 170.09 26.72"/>
    <polygon class="st7" points="153.09 9.75 136.08 26.72 153.09 26.72 153.09 9.75"/>
    <polygon class="st2" points="153.09 9.75 170.13 -7.22 170.09 9.75 153.09 9.75"/>
    <polygon class="st6" points="136.08 -7.22 153.09 9.75 153.09 -7.22 136.08 -7.22"/>
    <polygon class="st1" points="153.09 9.75 170.09 -7.22 153.09 -7.22 153.09 9.75"/>
    <polygon class="st3" points="136.08 -7.22 153.09 9.75 136.08 9.75 136.08 -7.22"/>
    <polygon class="st6" points="204.1 -7.22 170.09 -7.22 170.09 26.72 204.1 -7.22"/>
    <polygon class="st1" points="170.09 26.72 204.1 26.72 204.1 -7.22 170.09 26.72"/>
  </g>
  <g>
    <polygon class="st4" points="221.11 9.75 204.1 26.72 221.11 26.72 221.11 9.75"/>
    <polygon class="st0" points="204.1 -7.19 221.11 9.75 221.11 -7.22 204.1 -7.19"/>
    <polygon class="st5" points="204.1 -7.22 221.11 9.75 204.1 9.75 204.1 -7.22"/>
    <polygon class="st7" points="221.11 9.75 204.1 26.69 204.1 9.75 221.11 9.75"/>
    <polygon class="st2" points="221.11 9.75 238.11 -7.22 221.11 -7.22 221.11 9.75"/>
    <polygon class="st6" points="238.11 26.72 221.11 9.75 238.11 9.75 238.11 26.72"/>
    <polygon class="st1" points="221.11 9.75 238.11 -7.22 238.11 9.75 221.11 9.75"/>
    <polygon class="st3" points="238.11 26.69 221.11 9.75 221.11 26.69 238.11 26.69"/>
    <polygon class="st0" points="272.16 -7.22 238.11 -7.22 238.11 26.72 272.16 -7.22"/>
    <polygon class="st2" points="238.11 26.72 272.16 26.72 272.16 -7.22 238.11 26.72"/>
    <polygon class="st4" points="289.13 9.75 272.12 -7.22 272.12 9.75 289.13 9.75"/>
    <polygon class="st0" points="306.14 -7.22 289.13 9.75 306.14 9.75 306.14 -7.22"/>
    <polygon class="st5" points="306.17 -7.22 289.13 9.75 289.16 -7.22 306.17 -7.22"/>
    <polygon class="st7" points="289.13 9.75 272.16 -7.22 289.16 -7.22 289.13 9.75"/>
    <polygon class="st2" points="289.16 9.75 306.17 26.72 306.17 9.75 289.16 9.75"/>
    <polygon class="st6" points="272.12 26.72 289.16 9.75 289.13 26.72 272.12 26.72"/>
    <polygon class="st1" points="289.16 9.75 306.14 26.72 289.13 26.72 289.16 9.75"/>
    <polygon class="st3" points="272.16 26.72 289.16 9.75 272.16 9.75 272.16 26.72"/>
    <polygon class="st5" points="340.18 -7.22 306.17 -7.22 306.17 26.72 340.18 -7.22"/>
    <polygon class="st7" points="306.17 26.72 340.18 26.72 340.18 -7.22 306.17 26.72"/>
    <polygon class="st4" points="357.19 9.75 340.15 26.72 340.18 9.75 357.19 9.75"/>
    <polygon class="st0" points="374.16 26.72 357.19 9.75 374.19 9.75 374.16 26.72"/>
    <polygon class="st5" points="374.19 26.72 357.19 9.75 357.19 26.72 374.19 26.72"/>
    <polygon class="st7" points="357.19 9.75 340.18 26.72 357.19 26.72 357.19 9.75"/>
    <polygon class="st2" points="357.19 9.75 374.23 -7.22 374.19 9.75 357.19 9.75"/>
    <polygon class="st6" points="340.18 -7.22 357.19 9.75 357.19 -7.22 340.18 -7.22"/>
    <polygon class="st1" points="357.19 9.75 374.19 -7.22 357.19 -7.22 357.19 9.75"/>
    <polygon class="st3" points="340.22 -7.22 357.19 9.75 340.18 9.75 340.22 -7.22"/>
    <polygon class="st6" points="408.2 -7.22 374.19 -7.22 374.19 26.72 408.2 -7.22"/>
    <polygon class="st1" points="374.19 26.72 408.2 26.72 408.2 -7.22 374.19 26.72"/>
  </g>
  <g>
    <polygon class="st4" points="425.21 9.75 408.2 26.72 425.21 26.72 425.21 9.75"/>
    <polygon class="st0" points="408.2 -7.19 425.21 9.75 425.21 -7.22 408.2 -7.19"/>
    <polygon class="st5" points="408.2 -7.22 425.21 9.75 408.2 9.75 408.2 -7.22"/>
    <polygon class="st7" points="425.21 9.75 408.2 26.69 408.2 9.75 425.21 9.75"/>
    <polygon class="st2" points="425.21 9.75 442.22 -7.22 425.21 -7.22 425.21 9.75"/>
    <polygon class="st6" points="442.22 26.72 425.21 9.75 442.22 9.75 442.22 26.72"/>
    <polygon class="st1" points="425.21 9.75 442.22 -7.22 442.22 9.75 425.21 9.75"/>
    <polygon class="st3" points="442.22 26.69 425.21 9.75 425.21 26.69 442.22 26.69"/>
    <polygon class="st0" points="476.26 -7.22 442.22 -7.22 442.22 26.72 476.26 -7.22"/>
    <polygon class="st2" points="442.22 26.72 476.26 26.72 476.26 -7.22 442.22 26.72"/>
    <polygon class="st4" points="493.23 9.75 476.23 -7.22 476.23 9.75 493.23 9.75"/>
    <polygon class="st0" points="510.24 -7.22 493.23 9.75 510.27 9.75 510.24 -7.22"/>
    <polygon class="st5" points="510.27 -7.22 493.23 9.75 493.27 -7.22 510.27 -7.22"/>
    <polygon class="st7" points="493.23 9.75 476.26 -7.22 493.27 -7.22 493.23 9.75"/>
    <polygon class="st2" points="493.27 9.75 510.31 26.72 510.27 9.75 493.27 9.75"/>
    <polygon class="st6" points="476.23 26.72 493.27 9.75 493.23 26.72 476.23 26.72"/>
    <polygon class="st1" points="493.27 9.75 510.27 26.72 493.27 26.72 493.27 9.75"/>
    <polygon class="st3" points="476.26 26.72 493.27 9.75 476.26 9.75 476.26 26.72"/>
    <polygon class="st5" points="544.28 -7.22 510.27 -7.22 510.27 26.72 544.28 -7.22"/>
    <polygon class="st7" points="510.27 26.72 544.28 26.72 544.28 -7.22 510.27 26.72"/>
    <polygon class="st4" points="561.29 9.75 544.25 26.72 544.28 9.75 561.29 9.75"/>
    <polygon class="st0" points="578.26 26.72 561.29 9.75 578.3 9.75 578.26 26.72"/>
    <polygon class="st5" points="578.3 26.72 561.29 9.75 561.29 26.72 578.3 26.72"/>
    <polygon class="st7" points="561.29 9.75 544.28 26.72 561.29 26.72 561.29 9.75"/>
    <polygon class="st2" points="561.29 9.75 578.33 -7.22 578.3 9.75 561.29 9.75"/>
    <polygon class="st6" points="544.28 -7.22 561.29 9.75 561.29 -7.22 544.28 -7.22"/>
    <polygon class="st1" points="561.29 9.75 578.3 -7.22 561.29 -7.22 561.29 9.75"/>
    <polygon class="st3" points="544.32 -7.22 561.29 9.75 544.28 9.75 544.32 -7.22"/>
    <polygon class="st6" points="612.31 -7.22 578.3 -7.22 578.3 26.72 612.31 -7.22"/>
    <polygon class="st1" points="578.3 26.72 612.31 26.72 612.31 -7.22 578.3 26.72"/>
  </g>
  <g>
    <polygon class="st4" points="629.31 9.75 612.31 26.72 629.31 26.72 629.31 9.75"/>
    <polygon class="st0" points="612.31 -7.19 629.31 9.75 629.31 -7.22 612.31 -7.19"/>
    <polygon class="st5" points="612.31 -7.22 629.31 9.75 612.31 9.75 612.31 -7.22"/>
    <polygon class="st7" points="629.31 9.75 612.31 26.69 612.31 9.75 629.31 9.75"/>
    <polygon class="st2" points="629.31 9.75 646.35 -7.22 629.31 -7.22 629.31 9.75"/>
    <polygon class="st6" points="646.35 26.72 629.31 9.75 646.35 9.75 646.35 26.72"/>
    <polygon class="st1" points="629.31 9.75 646.35 -7.22 646.35 9.75 629.31 9.75"/>
    <polygon class="st3" points="646.35 26.69 629.31 9.75 629.31 26.69 646.35 26.69"/>
    <polygon class="st0" points="680.36 -7.22 646.35 -7.22 646.35 26.72 680.36 -7.22"/>
    <polygon class="st2" points="646.35 26.72 680.36 26.72 680.36 -7.22 646.35 26.72"/>
    <polygon class="st4" points="697.37 9.75 680.33 -7.22 680.36 9.75 697.37 9.75"/>
    <polygon class="st0" points="714.34 -7.22 697.37 9.75 714.38 9.75 714.34 -7.22"/>
    <polygon class="st5" points="714.38 -7.22 697.37 9.75 697.37 -7.22 714.38 -7.22"/>
    <polygon class="st7" points="697.37 9.75 680.36 -7.22 697.37 -7.22 697.37 9.75"/>
    <polygon class="st2" points="697.37 9.75 714.41 26.72 714.38 9.75 697.37 9.75"/>
    <polygon class="st6" points="680.36 26.72 697.37 9.75 697.37 26.72 680.36 26.72"/>
    <polygon class="st1" points="697.37 9.75 714.38 26.72 697.37 26.72 697.37 9.75"/>
    <polygon class="st3" points="680.36 26.72 697.37 9.75 680.36 9.75 680.36 26.72"/>
    <polygon class="st5" points="748.39 -7.22 714.38 -7.22 714.38 26.72 748.39 -7.22"/>
    <polygon class="st7" points="714.38 26.72 748.39 26.72 748.39 -7.22 714.38 26.72"/>
    <polygon class="st4" points="765.39 9.75 748.35 26.72 748.39 9.75 765.39 9.75"/>
    <polygon class="st0" points="782.4 26.72 765.39 9.75 782.4 9.75 782.4 26.72"/>
    <polygon class="st5" points="782.43 26.72 765.39 9.75 765.39 26.72 782.43 26.72"/>
    <polygon class="st7" points="765.39 9.75 748.39 26.72 765.39 26.72 765.39 9.75"/>
    <polygon class="st2" points="765.39 9.75 782.43 -7.22 782.43 9.75 765.39 9.75"/>
    <polygon class="st6" points="748.39 -7.22 765.39 9.75 765.39 -7.22 748.39 -7.22"/>
    <polygon class="st1" points="765.39 9.75 782.4 -7.22 765.39 -7.22 765.39 9.75"/>
    <polygon class="st3" points="748.42 -7.22 765.39 9.75 748.39 9.75 748.42 -7.22"/>
    <polygon class="st6" points="816.41 -7.22 782.4 -7.22 782.4 26.72 816.41 -7.22"/>
    <polygon class="st1" points="782.4 26.72 816.41 26.72 816.41 -7.22 782.4 26.72"/>
  </g>
  <g>
    <polygon class="st4" points="833.45 9.75 816.44 26.72 833.45 26.72 833.45 9.75"/>
    <polygon class="st0" points="816.44 -7.19 833.45 9.75 833.45 -7.22 816.44 -7.19"/>
    <polygon class="st5" points="816.44 -7.22 833.45 9.75 816.44 9.75 816.44 -7.22"/>
    <polygon class="st7" points="833.45 9.75 816.41 26.69 816.41 9.75 833.45 9.75"/>
    <polygon class="st2" points="833.45 9.75 850.45 -7.22 833.45 -7.22 833.45 9.75"/>
    <polygon class="st6" points="850.45 26.72 833.45 9.75 850.45 9.75 850.45 26.72"/>
    <polygon class="st1" points="833.45 9.75 850.45 -7.22 850.45 9.75 833.45 9.75"/>
    <polygon class="st3" points="850.45 26.69 833.45 9.75 833.45 26.69 850.45 26.69"/>
    <polygon class="st0" points="884.47 -7.22 850.45 -7.22 850.45 26.72 884.47 -7.22"/>
    <polygon class="st2" points="850.45 26.72 884.47 26.72 884.47 -7.22 850.45 26.72"/>
    <polygon class="st4" points="901.47 9.75 884.43 -7.22 884.47 9.75 901.47 9.75"/>
    <polygon class="st0" points="918.44 -7.22 901.47 9.75 918.48 9.75 918.44 -7.22"/>
    <polygon class="st5" points="918.48 -7.22 901.47 9.75 901.47 -7.22 918.48 -7.22"/>
    <polygon class="st7" points="901.47 9.75 884.47 -7.22 901.47 -7.22 901.47 9.75"/>
    <polygon class="st2" points="901.47 9.75 918.51 26.72 918.48 9.75 901.47 9.75"/>
    <polygon class="st6" points="884.47 26.72 901.47 9.75 901.47 26.72 884.47 26.72"/>
    <polygon class="st1" points="901.47 9.75 918.48 26.72 901.47 26.72 901.47 9.75"/>
    <polygon class="st3" points="884.5 26.72 901.47 9.75 884.47 9.75 884.5 26.72"/>
    <polygon class="st5" points="952.49 -7.22 918.48 -7.22 918.48 26.72 952.49 -7.22"/>
    <polygon class="st7" points="918.48 26.72 952.49 26.72 952.49 -7.22 918.48 26.72"/>
    <polygon class="st4" points="969.49 9.75 952.49 26.72 952.49 9.75 969.49 9.75"/>
    <polygon class="st0" points="986.5 26.72 969.49 9.75 986.5 9.75 986.5 26.72"/>
    <polygon class="st5" points="986.53 26.72 969.49 9.75 969.53 26.72 986.53 26.72"/>
    <polygon class="st7" points="969.49 9.75 952.52 26.72 969.53 26.72 969.49 9.75"/>
    <polygon class="st2" points="969.53 9.75 986.53 -7.22 986.53 9.75 969.53 9.75"/>
    <polygon class="st6" points="952.49 -7.22 969.53 9.75 969.49 -7.22 952.49 -7.22"/>
    <polygon class="st1" points="969.53 9.75 986.5 -7.22 969.49 -7.22 969.53 9.75"/>
    <polygon class="st3" points="952.52 -7.22 969.53 9.75 952.52 9.75 952.52 -7.22"/>
    <polygon class="st6" points="1020.55 -7.22 986.5 -7.22 986.5 26.72 1020.55 -7.22"/>
    <polygon class="st1" points="986.5 26.72 1020.55 26.72 1020.55 -7.22 986.5 26.72"/>
  </g>
  <g>
    <polygon class="st4" points="1037.55 9.75 1020.55 26.72 1037.55 26.72 1037.55 9.75"/>
    <polygon class="st0" points="1020.55 -7.19 1037.55 9.75 1037.55 -7.22 1020.55 -7.19"/>
    <polygon class="st5" points="1020.55 -7.22 1037.55 9.75 1020.55 9.75 1020.55 -7.22"/>
    <polygon class="st7" points="1037.55 9.75 1020.55 26.69 1020.55 9.75 1037.55 9.75"/>
    <polygon class="st2" points="1037.55 9.75 1054.56 -7.22 1037.55 -7.22 1037.55 9.75"/>
    <polygon class="st6" points="1054.56 26.72 1037.55 9.75 1054.56 9.75 1054.56 26.72"/>
    <polygon class="st1" points="1037.55 9.75 1054.56 -7.22 1054.56 9.75 1037.55 9.75"/>
    <polygon class="st3" points="1054.56 26.69 1037.55 9.75 1037.55 26.69 1054.56 26.69"/>
    <polygon class="st0" points="1088.57 -7.22 1054.56 -7.22 1054.56 26.72 1088.57 -7.22"/>
    <polygon class="st2" points="1054.56 26.72 1088.57 26.72 1088.57 -7.22 1054.56 26.72"/>
    <polygon class="st4" points="1105.57 9.75 1088.53 -7.22 1088.57 9.75 1105.57 9.75"/>
    <polygon class="st0" points="1122.55 -7.22 1105.57 9.75 1122.58 9.75 1122.55 -7.22"/>
    <polygon class="st5" points="1122.58 -7.22 1105.57 9.75 1105.57 -7.22 1122.58 -7.22"/>
    <polygon class="st7" points="1105.57 9.75 1088.57 -7.22 1105.57 -7.22 1105.57 9.75"/>
    <polygon class="st2" points="1105.57 9.75 1122.61 26.72 1122.58 9.75 1105.57 9.75"/>
    <polygon class="st6" points="1088.57 26.72 1105.57 9.75 1105.57 26.72 1088.57 26.72"/>
    <polygon class="st1" points="1105.57 9.75 1122.58 26.72 1105.57 26.72 1105.57 9.75"/>
    <polygon class="st3" points="1088.6 26.72 1105.57 9.75 1088.57 9.75 1088.6 26.72"/>
    <polygon class="st5" points="1156.59 -7.22 1122.58 -7.22 1122.58 26.72 1156.59 -7.22"/>
    <polygon class="st7" points="1122.58 26.72 1156.59 26.72 1156.59 -7.22 1122.58 26.72"/>
    <polygon class="st4" points="1173.6 9.75 1156.59 26.72 1156.59 9.75 1173.6 9.75"/>
    <polygon class="st0" points="1190.6 26.72 1173.6 9.75 1190.6 9.75 1190.6 26.72"/>
    <polygon class="st5" points="1190.64 26.72 1173.6 9.75 1173.63 26.72 1190.64 26.72"/>
    <polygon class="st7" points="1173.6 9.75 1156.63 26.72 1173.63 26.72 1173.6 9.75"/>
    <polygon class="st2" points="1173.63 9.75 1190.64 -7.22 1190.64 9.75 1173.63 9.75"/>
    <polygon class="st6" points="1156.59 -7.22 1173.63 9.75 1173.6 -7.22 1156.59 -7.22"/>
    <polygon class="st1" points="1173.63 9.75 1190.6 -7.22 1173.6 -7.22 1173.63 9.75"/>
    <polygon class="st3" points="1156.63 -7.22 1173.63 9.75 1156.63 9.75 1156.63 -7.22"/>
    <polygon class="st6" points="1224.65 -7.22 1190.64 -7.22 1190.64 26.72 1224.65 -7.22"/>
    <polygon class="st1" points="1190.64 26.72 1224.65 26.72 1224.65 -7.22 1190.64 26.72"/>
  </g>
  <g>
    <polygon class="st4" points="1241.65 9.75 1224.65 26.72 1241.65 26.72 1241.65 9.75"/>
    <polygon class="st0" points="1224.65 -7.19 1241.65 9.75 1241.65 -7.22 1224.65 -7.19"/>
    <polygon class="st5" points="1224.65 -7.22 1241.65 9.75 1224.65 9.75 1224.65 -7.22"/>
    <polygon class="st7" points="1241.65 9.75 1224.65 26.69 1224.65 9.75 1241.65 9.75"/>
    <polygon class="st2" points="1241.65 9.75 1258.66 -7.22 1241.65 -7.22 1241.65 9.75"/>
    <polygon class="st6" points="1258.66 26.72 1241.65 9.75 1258.66 9.75 1258.66 26.72"/>
    <polygon class="st1" points="1241.65 9.75 1258.66 -7.22 1258.66 9.75 1241.65 9.75"/>
    <polygon class="st3" points="1258.66 26.69 1241.65 9.75 1241.65 26.69 1258.66 26.69"/>
    <polygon class="st0" points="1292.67 -7.22 1258.66 -7.22 1258.66 26.72 1292.67 -7.22"/>
    <polygon class="st2" points="1258.66 26.72 1292.67 26.72 1292.67 -7.22 1258.66 26.72"/>
    <polygon class="st4" points="1309.68 9.75 1292.64 -7.22 1292.67 9.75 1309.68 9.75"/>
    <polygon class="st0" points="1326.68 -7.22 1309.68 9.75 1326.68 9.75 1326.68 -7.22"/>
    <polygon class="st5" points="1326.72 -7.22 1309.68 9.75 1309.68 -7.22 1326.72 -7.22"/>
    <polygon class="st7" points="1309.68 9.75 1292.67 -7.22 1309.68 -7.22 1309.68 9.75"/>
    <polygon class="st2" points="1309.68 9.75 1326.72 26.72 1326.72 9.75 1309.68 9.75"/>
    <polygon class="st6" points="1292.67 26.72 1309.68 9.75 1309.68 26.72 1292.67 26.72"/>
    <polygon class="st1" points="1309.68 9.75 1326.68 26.72 1309.68 26.72 1309.68 9.75"/>
    <polygon class="st3" points="1292.7 26.72 1309.68 9.75 1292.67 9.75 1292.7 26.72"/>
    <polygon class="st5" points="1360.69 -7.22 1326.68 -7.22 1326.68 26.72 1360.69 -7.22"/>
    <polygon class="st7" points="1326.68 26.72 1360.69 26.72 1360.69 -7.22 1326.68 26.72"/>
    <polygon class="st4" points="1377.7 9.75 1360.69 26.72 1360.69 9.75 1377.7 9.75"/>
    <polygon class="st0" points="1394.7 26.72 1377.7 9.75 1394.7 9.75 1394.7 26.72"/>
    <polygon class="st5" points="1394.74 26.72 1377.7 9.75 1377.73 26.72 1394.74 26.72"/>
    <polygon class="st7" points="1377.7 9.75 1360.73 26.72 1377.73 26.72 1377.7 9.75"/>
    <polygon class="st2" points="1377.73 9.75 1394.74 -7.22 1394.74 9.75 1377.73 9.75"/>
    <polygon class="st6" points="1360.69 -7.22 1377.73 9.75 1377.7 -7.22 1360.69 -7.22"/>
    <polygon class="st1" points="1377.73 9.75 1394.7 -7.22 1377.7 -7.22 1377.73 9.75"/>
    <polygon class="st3" points="1360.73 -7.22 1377.73 9.75 1360.73 9.75 1360.73 -7.22"/>
    <polygon class="st6" points="1428.75 -7.22 1394.74 -7.22 1394.74 26.72 1428.75 -7.22"/>
    <polygon class="st1" points="1394.74 26.72 1428.75 26.72 1428.75 -7.22 1394.74 26.72"/>
  </g>
</svg>